HIERARCHY
ROOT Hips
{
  OFFSET 1.07747 95.9575 10.2739
  CHANNELS 6 Xposition Yposition Zposition Zrotation Xrotation Yrotation
  JOINT Spine
  {
    OFFSET 7.53374 0.593561 1.09813e-05
    CHANNELS 6 Xposition Yposition Zposition Zrotation Xrotation Yrotation
    JOINT Spine1
    {
      OFFSET 13.0694 -0.00893606 0
      CHANNELS 6 Xposition Yposition Zposition Zrotation Xrotation Yrotation
      JOINT Spine2
      {
        OFFSET 12.2366 0.00169269 0
        CHANNELS 6 Xposition Yposition Zposition Zrotation Xrotation Yrotation
        JOINT LeftShoulder
        {
          OFFSET 17.6513 -6.97471 7.17943
          CHANNELS 6 Xposition Yposition Zposition Zrotation Xrotation Yrotation
          JOINT LeftArm
          {
            OFFSET 13.2157 0 -0.0117243
            CHANNELS 6 Xposition Yposition Zposition Zrotation Xrotation Yrotation
            JOINT LeftForeArm
            {
              OFFSET 29.1075 0 0
              CHANNELS 6 Xposition Yposition Zposition Zrotation Xrotation Yrotation
              JOINT LeftHand
              {
                OFFSET 27.7712 0.000515071 0.00134251
                CHANNELS 6 Xposition Yposition Zposition Zrotation Xrotation Yrotation
                End Site
                {
                  OFFSET 0 0 0
                }
              }
            }
          }
        }
        JOINT Neck
        {
          OFFSET 22.546 -3.80889 -0.11452
          CHANNELS 6 Xposition Yposition Zposition Zrotation Xrotation Yrotation
          JOINT Head
          {
            OFFSET 12.1557 1.8327e-05 7.99896e-05
            CHANNELS 6 Xposition Yposition Zposition Zrotation Xrotation Yrotation
            End Site
            {
              OFFSET 0 0 0
            }
          }
        }
        JOINT RightShoulder
        {
          OFFSET 17.6513 -6.97489 -7.40851
          CHANNELS 6 Xposition Yposition Zposition Zrotation Xrotation Yrotation
          JOINT RightArm
          {
            OFFSET 13.2238 0.00313059 0.00396408
            CHANNELS 6 Xposition Yposition Zposition Zrotation Xrotation Yrotation
            JOINT RightForeArm
            {
              OFFSET 29.1068 0.000261193 0.000306485
              CHANNELS 6 Xposition Yposition Zposition Zrotation Xrotation Yrotation
              JOINT RightHand
              {
                OFFSET 27.7729 -0.00476486 0.000782313
                CHANNELS 6 Xposition Yposition Zposition Zrotation Xrotation Yrotation
                End Site
                {
                  OFFSET 0 0 0
                }
              }
            }
          }
        }
      }
    }
  }
  JOINT LeftUpLeg
  {
    OFFSET -1.6965 -0.234718 9.46756
    CHANNELS 6 Xposition Yposition Zposition Zrotation Xrotation Yrotation
    JOINT LeftLeg
    {
      OFFSET 40.0569 -0.00733181 0.0261822
      CHANNELS 6 Xposition Yposition Zposition Zrotation Xrotation Yrotation
      JOINT LeftFoot
      {
        OFFSET 48.9977 0.000225704 0
        CHANNELS 6 Xposition Yposition Zposition Zrotation Xrotation Yrotation
        JOINT LeftToe
        {
          OFFSET 11.2727 22.9777 -3.05045e-05
          CHANNELS 6 Xposition Yposition Zposition Zrotation Xrotation Yrotation
          End Site
          {
            OFFSET 0 0 0
          }
        }
      }
    }
  }
  JOINT RightUpLeg
  {
    OFFSET -1.69651 -0.23477 -9.69671
    CHANNELS 6 Xposition Yposition Zposition Zrotation Xrotation Yrotation
    JOINT RightLeg
    {
      OFFSET 40.0571 0.000391223 -1.01941e-05
      CHANNELS 6 Xposition Yposition Zposition Zrotation Xrotation Yrotation
      JOINT RightFoot
      {
        OFFSET 48.9978 0.00179262 -3.35303e-05
        CHANNELS 6 Xposition Yposition Zposition Zrotation Xrotation Yrotation
        JOINT RightToe
        {
          OFFSET 11.2726 22.9778 0.000330521
          CHANNELS 6 Xposition Yposition Zposition Zrotation Xrotation Yrotation
          End Site
          {
            OFFSET 0 0 0
          }
        }
      }
    }
  }
}
MOTION
Frames:	8
Frame Time:	0.0333333
1.54547 96.2868 159.174 -149.194 62.0953 -123.239 7.53374 0.593558 1.01944e-05 4.82431 -8.97506 -0.672369 13.0694 -0.00893353 -7.86439e-06 1.83782 -17.7244 -3.08452 12.2366 0.00169269 6.4926e-06 0.0881613 0.000824499 5.1537e-05 17.6513 -6.97472 7.17943 -173.286 18.1676 -105.203 13.2157 -2.69194e-06 -0.0117222 -11.4323 -29.444 33.4457 29.1075 -1.30255e-06 -2.93942e-06 -82.6875 0.256849 1.94115 27.7712 0.000504558 0.00134612 -67.6158 -87.0837 -48.511 22.546 -3.8089 -0.114519 38.3942 30.0465 4.05618 12.1557 -3.33487e-06 7.57949e-05 -48.5305 -7.73466 -15.2628 17.6513 -6.9749 -7.40851 -172.23 38.063 92.1364 13.2238 0.00312703 0.00395055 15.8043 5.84719 -53.5183 29.1068 0.000112064 1.66064e-06 -75.9726 -26.6296 -60.8725 27.7729 -0.00473726 0.000785401 -19.738 74.4079 13.0333 -1.69651 -0.234717 9.46756 25.2519 0.991022 -171.694 40.0568 5.57553e-05 5.13885e-07 -35.6377 0.000986312 -0.00249131 48.9977 0.000237507 4.60551e-07 -8.32954 -18.9879 -1.84311 11.2727 22.9777 -3.54852e-05 90 -0.00016419 0.00016378 -1.6965 -0.234768 -9.6967 -60.1796 -5.64371 172.136 40.0571 0.000392434 -1.39791e-06 -30.6429 0.000647095 -0.0021646 48.9978 0.00177895 -2.21831e-05 -4.03082 30.404 0.453157 11.2726 22.9778 0.00033201 89.9999 0.00161062 0.000195775 
0.711465 93.2902 173.703 -148.078 62.5378 -125.512 7.53374 0.593558 1.01944e-05 5.761 -8.17304 0.204915 13.0694 -0.00893353 -7.86439e-06 3.9106 -16.2988 -1.00932 12.2366 0.00169269 6.4926e-06 0.0881613 0.000824499 5.1537e-05 17.6513 -6.97472 7.17943 -172.373 11.186 -94.2547 13.2157 -2.69194e-06 -0.0117222 -5.77283 -26.0916 38.0186 29.1075 -1.30255e-06 -2.93942e-06 -82.1647 1.63525 11.6194 27.7712 0.000504558 0.00134612 19.4963 -89.4806 35.3228 22.546 -3.8089 -0.114519 37.744 26.4664 1.68816 12.1557 -3.33487e-06 7.57949e-05 -50.5355 -8.00275 -13.1168 17.6513 -6.9749 -7.40851 -171.734 26.8501 86.438 13.2238 0.00312703 0.00395055 13.9102 8.11039 -56.8766 29.1068 0.000112064 1.66064e-06 -75.4447 -17.2311 -48.7783 27.7729 -0.00473726 0.000785401 -31.4583 73.4089 20.7363 -1.69651 -0.234717 9.46756 10.0474 2.44583 -165.493 40.0568 5.57553e-05 5.13885e-07 -69.4568 0.00332285 -0.0041851 48.9977 0.000237507 4.60551e-07 2.99413 -11.8058 3.3181 11.2727 22.9777 -3.54852e-05 90 -0.000165354 0.00016603 -1.6965 -0.234768 -9.6967 -62.9962 -7.24941 172.893 40.0571 0.000392434 -1.39791e-06 -47.98 0.00294311 -0.00443504 48.9978 0.00177895 -2.21831e-05 7.59139 31.1918 1.1101 11.2726 22.9778 0.00033201 89.9999 0.00160602 0.000189235 
-0.429097 89.6031 188.37 -150.856 63.2833 -124.396 7.53374 0.593558 1.01944e-05 6.60669 -6.28335 1.2016 13.0694 -0.00893353 -7.86439e-06 5.7836 -12.6931 1.4242 12.2366 0.00169269 6.4926e-06 0.0881613 0.000824499 5.1537e-05 17.6513 -6.97472 7.17943 -171.365 2.19721 -81.3782 13.2157 -2.69194e-06 -0.0117222 -2.3741 -22.54 35.7618 29.1075 -1.30255e-06 -2.93942e-06 -78.6156 5.63252 25.928 27.7712 0.000504558 0.00134612 -157.104 -85.0732 -144.498 22.546 -3.8089 -0.114519 35.5362 19.334 -0.856237 12.1557 -3.33487e-06 7.57949e-05 -52.4524 -7.69194 -8.65039 17.6513 -6.9749 -7.40851 -171.168 13.9559 78.9127 13.2238 0.00312703 0.00395055 8.84588 14.4424 -55.4701 29.1068 0.000112064 1.66064e-06 -82.907 -3.95149 -29.0298 27.7729 -0.00473726 0.000785401 -22.8788 72.0184 13.7858 -1.69651 -0.234717 9.46756 -13.0695 -2.57656 -163.747 40.0568 5.57553e-05 5.13885e-07 -102.387 0.0060561 -0.0043017 48.9977 0.000237507 4.60551e-07 7.45663 -9.30706 8.90975 11.2727 22.9777 -3.54852e-05 90 -0.000168752 0.00016353 -1.6965 -0.234768 -9.6967 -62.8776 -10.4899 175.15 40.0571 0.000392434 -1.39791e-06 -64.456 0.00289249 -0.00404512 48.9978 0.00177895 -2.21831e-05 23.5284 29.5181 -0.581874 11.2726 22.9778 0.00033201 89.9999 0.00160804 0.000205511 
-1.25078 87.481 203.299 -155.92 63.623 -120.494 7.53374 0.593558 1.01944e-05 6.60585 -4.0291 1.88827 13.0694 -0.00893353 -7.86439e-06 5.82932 -8.31195 3.14334 12.2366 0.00169269 6.4926e-06 0.0881613 0.000824499 5.1537e-05 17.6513 -6.97472 7.17943 -170.727 -7.23683 -72.8447 13.2157 -2.69194e-06 -0.0117222 5.29069 -16.2209 38.2625 29.1075 -1.30255e-06 -2.93942e-06 -76.7817 9.27159 34.4232 27.7712 0.000504558 0.00134612 -155.943 -87.3996 -144.41 22.546 -3.8089 -0.114519 33.9134 11.4161 -2.61397 12.1557 -3.33487e-06 7.57949e-05 -52.7498 -7.6389 -4.17885 17.6513 -6.9749 -7.40851 -170.933 3.04694 75.6261 13.2238 0.00312703 0.00395055 -4.08842 26.9971 -46.3718 29.1068 0.000112064 1.66064e-06 -84.3588 -1.32749 -13.2907 27.7729 -0.00473726 0.000785401 -30.6391 71.7205 21.9458 -1.69651 -0.234717 9.46756 -26.1531 -4.61318 -164.216 40.0568 5.57553e-05 5.13885e-07 -108.346 0.00641591 -0.00413065 48.9977 0.000237507 4.60551e-07 3.19633 -8.26335 11.7826 11.2727 22.9777 -3.54852e-05 90 -0.000161897 0.000165623 -1.6965 -0.234768 -9.6967 -53.0328 -12.8013 179.07 40.0571 0.000392434 -1.39791e-06 -66.4401 0.00309138 -0.00410741 48.9978 0.00177895 -2.21831e-05 37.3524 27.3907 -1.23405 11.2726 22.9778 0.00033201 89.9999 0.00161403 0.000194556 
-1.29734 88.7583 218.606 -163.371 62.585 -113.248 7.53374 0.593558 1.01944e-05 4.94925 -1.29073 2.07469 13.0694 -0.00893353 -7.86439e-06 2.45831 -2.94977 3.89134 12.2366 0.00169269 6.4926e-06 0.0881613 0.000824499 5.1537e-05 17.6513 -6.97472 7.17943 -170.678 -17.6713 -72.6532 13.2157 -2.69194e-06 -0.0117222 15.2973 -6.94678 40.1668 29.1075 -1.30255e-06 -2.93942e-06 -77.8611 11.2167 42.1045 27.7712 0.000504558 0.00134612 48.4656 -84.6335 59.0041 22.546 -3.8089 -0.114519 35.722 2.69753 -2.63394 12.1557 -3.33487e-06 7.57949e-05 -50.6607 -7.45286 0.0596526 17.6513 -6.9749 -7.40851 -171.224 -4.22518 79.6092 13.2238 0.00312703 0.00395055 -11.2026 32.0954 -41.2562 29.1068 0.000112064 1.66064e-06 -82.2357 0.146007 1.11769 27.7729 -0.00473726 0.000785401 -28.4535 67.009 14.5097 -1.69651 -0.234717 9.46756 -46.0639 -6.04062 -167.533 40.0568 5.57553e-05 5.13885e-07 -113.098 0.00674265 -0.00397009 48.9977 0.000237507 4.60551e-07 3.56172 -8.26459 10.2084 11.2727 22.9777 -3.54852e-05 90 -0.000164288 0.000169594 -1.6965 -0.234768 -9.6967 -38.8308 -12.1376 -177.285 40.0571 0.000392434 -1.39791e-06 -56.2685 0.00136291 -0.00309729 48.9978 0.00177895 -2.21831e-05 38.9085 23.6667 -0.742259 11.2726 22.9778 0.00033201 89.9999 0.00160691 0.000195584 
-0.900341 92.3981 234.257 -171.942 60.6089 -104.375 7.53374 0.593558 1.01944e-05 2.59097 1.92278 2.04992 13.0694 -0.00893353 -7.86439e-06 -2.37633 3.35617 4.50895 12.2366 0.00169269 6.4926e-06 0.0881613 0.000824499 5.1537e-05 17.6513 -6.97472 7.17943 -170.96 -28.7514 -77.2322 13.2157 -2.69194e-06 -0.0117222 22.7443 -0.461086 35.2273 29.1075 -1.30255e-06 -2.93942e-06 -79.9092 11.9028 49.1997 27.7712 0.000504558 0.00134612 45.8617 -75.0088 59.1738 22.546 -3.8089 -0.114519 38.393 -6.88477 -2.10752 12.1557 -3.33487e-06 7.57949e-05 -46.9295 -7.04366 4.79951 17.6513 -6.9749 -7.40851 -171.83 -9.5244 87.4632 13.2238 0.00312703 0.00395055 -14.8361 33.113 -35.6647 29.1068 0.000112064 1.66064e-06 -78.8931 1.91728 9.61766 27.7729 -0.00473726 0.000785401 -34.8006 63.4213 15.1286 -1.69651 -0.234717 9.46756 -69.8207 -5.70387 -170.944 40.0568 5.57553e-05 5.13885e-07 -113.979 0.00630149 -0.00415427 48.9977 0.000237507 4.60551e-07 4.4604 -9.01536 6.20232 11.2727 22.9777 -3.54852e-05 90 -0.000161278 0.000164328 -1.6965 -0.234768 -9.6967 -18.4343 -9.13909 -174.372 40.0571 0.000392434 -1.39791e-06 -30.3464 0.000752232 -0.00215214 48.9978 0.00177895 -2.21831e-05 31.5765 19.6279 0.492055 11.2726 22.9778 0.00033201 89.9999 0.00160977 0.000193985 
-0.471572 96.0561 250.073 -179.306 59.5479 -96.588 7.53374 0.593558 1.01944e-05 1.29889 4.54158 1.94782 13.0694 -0.00893353 -7.86439e-06 -5.11412 8.52432 5.0151 12.2366 0.00169269 6.4926e-06 0.0881613 0.000824499 5.1537e-05 17.6513 -6.97472 7.17943 -171.259 -37.7994 -81.5976 13.2157 -2.69194e-06 -0.0117222 23.5403 -0.848017 27.9919 29.1075 -1.30255e-06 -2.93942e-06 -80.309 13.6814 54.1611 27.7712 0.000504558 0.00134612 44.6971 -68.8361 60.5193 22.546 -3.8089 -0.114519 38.5361 -14.3188 -1.90864 12.1557 -3.33487e-06 7.57949e-05 -44.9608 -5.90635 8.66712 17.6513 -6.9749 -7.40851 -172.47 -13.9912 95.3895 13.2238 0.00312703 0.00395055 -15.5792 30.7373 -27.9658 29.1068 0.000112064 1.66064e-06 -77.5833 2.35852 10.5389 27.7729 -0.00473726 0.000785401 -52.6965 63.3632 29.0512 -1.69651 -0.234717 9.46756 -89.8943 -4.59946 -172.789 40.0568 5.57553e-05 5.13885e-07 -110.407 0.00671073 -0.00397733 48.9977 0.000237507 4.60551e-07 -0.28954 -12.1384 2.21612 11.2727 22.9777 -3.54852e-05 90 -0.000169328 0.000169795 -1.6965 -0.234768 -9.6967 0.160623 -5.22619 -173.884 40.0571 0.000392434 -1.39791e-06 -4.78897 -6.37492e-06 -0.000246262 48.9978 0.00177895 -2.21831e-05 8.72859 15.6413 5.07208 11.2726 22.9778 0.00033201 89.9999 0.00160801 0.000191545 
-0.154171 97.4344 265.408 173.527 60.2252 -88.9895 7.53374 0.593558 1.01944e-05 1.54598 6.11869 1.70153 13.0694 -0.00893353 -7.86439e-06 -4.71809 11.723 4.91497 12.2366 0.00169269 6.4926e-06 0.0881613 0.000824499 5.1537e-05 17.6513 -6.97472 7.17943 -171.433 -42.3269 -83.8593 13.2157 -2.69194e-06 -0.0117222 20.5338 -3.36698 26.5489 29.1075 -1.30255e-06 -2.93942e-06 -75.5964 20.3961 53.6074 27.7712 0.000504558 0.00134612 45.2762 -66.2493 64.6361 22.546 -3.8089 -0.114519 38.3703 -18.5264 -1.39237 12.1557 -3.33487e-06 7.57949e-05 -46.3433 -3.6866 11.3019 17.6513 -6.9749 -7.40851 -173.117 -17.2048 103.186 13.2238 0.00312703 0.00395055 -17.4872 30.3038 -23.1267 29.1068 0.000112064 1.66064e-06 -75.1267 2.28466 8.49672 27.7729 -0.00473726 0.000785401 -71.7789 65.4405 43.6079 -1.69651 -0.234717 9.46756 -96.5483 -3.22074 -172.85 40.0568 5.57553e-05 5.13885e-07 -100.219 0.00575561 -0.0042945 48.9977 0.000237507 4.60551e-07 -0.354182 -17.815 1.60537 11.2727 22.9777 -3.54852e-05 90 -0.000159486 0.000157335 -1.6965 -0.234768 -9.6967 4.95115 -2.18766 -175.098 40.0571 0.000392434 -1.39791e-06 -7.34176 3.56755e-06 -0.000557134 48.9978 0.00177895 -2.21831e-05 0.948153 19.0518 0.562558 11.2726 22.9778 0.00033201 89.9999 0.00161534 0.00018992 
